<svg width="180" height="60" viewBox="0 0 180 60" fill="none" xmlns="http://www.w3.org/2000/svg">
<path d="M32.1728 35.8241C32.3692 35.5029 32.7885 35.4016 33.1087 35.597C33.4298 35.7934 33.5311 36.2127 33.3357 36.5339C32.6545 37.6467 31.7974 38.9835 30.7542 40.4349C29.7109 41.8863 28.4907 43.44 27.0925 44.9752C24.698 47.6028 20.9412 50.6427 16.943 52.8571C13.6393 54.6869 10.1536 55.9613 7.0984 55.9951C6.72302 55.9981 6.41618 55.6954 6.41311 55.32C6.41004 54.9446 6.71279 54.6378 7.08817 54.6347C9.89274 54.604 13.1555 53.3992 16.2813 51.6675C20.1465 49.5268 23.7755 46.5923 26.084 44.0577C27.4556 42.5532 28.641 41.0435 29.6495 39.6402C30.658 38.2369 31.4988 36.9236 32.1728 35.8241Z" fill="#8B7452"/>
<path d="M30.9396 40.17C30.6941 40.4543 30.2635 40.485 29.9792 40.2395C29.6948 39.994 29.6641 39.5634 29.9096 39.2791C38.532 29.2954 44.8029 31.9107 51.3653 34.6478C54.7293 36.0511 58.1752 37.4881 62.0169 37.079C62.3913 37.0391 62.7268 37.3102 62.7667 37.6845C62.784 37.8523 62.7401 38.0118 62.6521 38.1407C51.4778 54.5048 42.9894 50.1721 36.0087 46.6076C32.7346 44.9363 29.8206 43.4481 27.2912 44.6806C26.9526 44.8453 26.5435 44.7041 26.3788 44.3656C26.2142 44.027 26.3553 43.6179 26.6939 43.4532C29.835 41.9231 33.0343 43.5555 36.6275 45.3904C42.9608 48.6236 50.6268 52.5338 60.7251 38.513C57.135 38.5304 53.9551 37.2048 50.8426 35.9069C44.7446 33.3641 38.9166 30.9329 30.9396 40.17Z" fill="#8B7452"/>
<path d="M34.677 30.4574C35.4963 30.936 36.0445 31.7021 36.2685 32.5541C36.4925 33.4061 36.3912 34.3431 35.9136 35.1623C35.4349 35.9816 34.6688 36.5298 33.8168 36.7538C33.0231 36.9625 32.1557 36.8888 31.3794 36.492H31.3682L31.2086 36.3989C30.3893 35.9202 29.8411 35.1541 29.6171 34.3021C29.4084 33.5084 29.4821 32.6411 29.8789 31.8648V31.8535L29.972 31.694C30.4507 30.8747 31.2168 30.3264 32.0688 30.1024C32.9208 29.8784 33.8587 29.9787 34.678 30.4574H34.677ZM34.9501 32.9009C34.8151 32.3874 34.4837 31.9261 33.9886 31.6367C33.4926 31.3472 32.9269 31.2858 32.4145 31.4198C31.9041 31.5538 31.4428 31.8832 31.1534 32.3751L31.1493 32.3813C30.8598 32.8774 30.7985 33.4419 30.9324 33.9544C31.0675 34.4668 31.3989 34.9291 31.8939 35.2186C32.3889 35.508 32.9546 35.5694 33.467 35.4354C33.9794 35.3004 34.4417 34.97 34.7312 34.474C35.0207 33.9779 35.082 33.4123 34.948 32.8999L34.9501 32.9009Z" fill="#8B7452"/>
<path d="M39.6807 27.9783C40.4765 28.4437 41.0104 29.1883 41.2272 30.0168C41.4297 30.787 41.3592 31.6278 40.9756 32.3816V32.3928L40.8825 32.5524C40.4172 33.3492 39.6725 33.8821 38.8441 34.0989C38.0156 34.3168 37.1042 34.2186 36.3085 33.7542C35.5117 33.2888 34.9788 32.5432 34.762 31.7157C34.5441 30.8872 34.6423 29.9759 35.1077 29.1802L35.1159 29.1648L35.1179 29.1607L35.121 29.1556C35.5864 28.3721 36.3249 27.8474 37.1452 27.6326C37.9736 27.4148 38.885 27.514 39.6807 27.9783ZM39.9098 30.3636C39.781 29.8747 39.4649 29.4338 38.9924 29.1577V29.1566L38.975 29.1474L38.9729 29.1464C38.5045 28.8805 37.9736 28.8242 37.4919 28.951C37.003 29.0799 36.5621 29.396 36.286 29.8685C36.0098 30.3421 35.9515 30.8811 36.0794 31.37C36.2072 31.8569 36.5202 32.2946 36.9887 32.5718L36.9968 32.5769C37.4694 32.8531 38.0084 32.9114 38.4973 32.7835C38.9862 32.6547 39.4271 32.3386 39.7032 31.8661C39.9794 31.3925 40.0377 30.8525 39.9098 30.3636Z" fill="#8B7452"/>
<path d="M62.5004 38.2985C57.4896 42.1095 52.8133 41.0816 47.7943 39.978C42.0113 38.7066 35.7466 37.3289 28.055 43.8708L27.1743 42.8306C35.3804 35.8519 41.9847 37.3043 48.0818 38.6442C52.7867 39.6783 57.1715 40.6428 61.6781 37.2153L62.5004 38.2985Z" fill="#8B7452"/>
<path d="M39.9841 37.5435C41.3301 37.5854 44.3965 37.4299 46.9924 36.6904C48.5594 36.2435 49.9269 35.596 50.5406 34.6714L51.677 35.4232C50.8546 36.6618 49.2099 37.476 47.3658 38.0017C44.6226 38.7831 41.3741 38.9468 39.9473 38.9028L39.9841 37.5424V37.5435Z" fill="#8B7452"/>
<path d="M34.1973 38.5961C37.2463 37.4249 40.9704 39.9124 44.6577 42.3754C48.4482 44.9079 52.1979 47.4128 54.4399 45.3661L55.3574 46.3746C52.3298 49.1383 48.1373 46.3378 43.8998 43.5066C40.503 41.237 37.0745 38.9469 34.6821 39.8654L34.1973 38.5961Z" fill="#8B7452"/>
<path d="M19.4391 49.7848C19.6252 49.4841 19.8022 49.1701 19.9709 48.8448C22.2518 44.4365 22.2027 38.946 20.8802 34.1172C19.5618 29.3008 16.9976 25.1737 14.2329 23.4636C14.0918 23.3766 13.9445 23.2928 13.79 23.213L14.414 22.002C14.5858 22.0909 14.7648 22.1932 14.9479 22.3057C17.9918 24.1898 20.7871 28.6257 22.1925 33.7593C23.5948 38.8805 23.6336 44.73 21.182 49.4687C21.004 49.8114 20.8096 50.1561 20.5969 50.4987L19.4391 49.7838V49.7848Z" fill="#8B7452"/>
<path d="M22.0401 45.138C22.3878 45.2792 22.5545 45.6761 22.4134 46.0238C22.2722 46.3716 21.8754 46.5383 21.5276 46.3971C11.6881 42.3785 12.8787 37.5068 14.1316 32.3784C14.8916 29.268 15.6771 26.0522 13.5445 22.9971C13.3297 22.6892 13.4044 22.2647 13.7123 22.05C13.9076 21.9139 14.149 21.8935 14.3546 21.9763C18.7895 23.753 21.8958 25.7965 24.0018 27.9526C26.3952 30.4023 27.505 32.9972 27.8026 35.5164C28.0992 38.0233 27.5868 40.4423 26.7368 42.5636C25.5023 45.6454 23.5416 48.1093 22.3449 49.2784C22.0748 49.5403 21.6442 49.5341 21.3814 49.2651C21.1195 48.9951 21.1246 48.5645 21.3947 48.3016C22.5024 47.2195 24.3199 44.9325 25.4716 42.0563C26.2459 40.1242 26.7133 37.9323 26.4474 35.676C26.1825 33.4319 25.1842 31.1111 23.025 28.9018C21.3374 27.1743 18.9419 25.5132 15.6423 24.0066C16.8544 26.9554 16.1445 29.8663 15.4521 32.6975C14.3413 37.2439 13.2857 41.5623 22.037 45.137L22.0401 45.138Z" fill="#8B7452"/>
<path d="M16.0273 30.1271C15.835 32.1063 17.1974 33.216 18.749 34.4802C20.4827 35.8927 22.423 37.473 23.141 40.5323L21.8123 40.8422C21.1997 38.233 19.4517 36.8092 17.8898 35.5368C16.0365 34.0271 14.4092 32.7016 14.672 29.9993L16.0273 30.1271Z" fill="#8B7452"/>
<path d="M24.7916 29.3059C24.0562 30.0392 23.5673 31.0334 23.2512 32.0787C22.8032 33.5577 22.705 35.1186 22.7439 36.2242L21.3836 36.2723C21.3406 35.047 21.449 33.3184 21.9441 31.6839C22.3184 30.4494 22.9137 29.2558 23.8312 28.3403L24.7916 29.3059Z" fill="#8B7452"/>
<path d="M45.1163 3.93994C45.1091 3.56456 45.4078 3.25362 45.7832 3.24646C46.1585 3.2393 46.4695 3.53797 46.4766 3.91334C46.5769 8.23577 45.639 12.3035 43.9094 16.3805V16.3825C42.1941 20.4247 39.7035 24.4669 36.678 28.7709C36.4612 29.0788 36.0367 29.1524 35.7289 28.9366C35.421 28.7198 35.3473 28.2953 35.5632 27.9874C38.5385 23.754 40.9841 19.7895 42.6564 15.8496C44.3134 11.9455 45.2114 8.0578 45.1163 3.93994Z" fill="#8B7452"/>
<path d="M46.4518 3.74043C46.4897 3.86419 46.6318 4.31218 46.7801 4.78063C47.2813 6.36702 47.8674 8.21935 48.3 10.1965C49.8322 17.1987 49.4221 25.4896 36.823 28.2451C36.5059 28.3136 36.1929 28.15 36.061 27.8677C31.1995 18.8679 34.538 15.5049 39.1734 10.8378C41.1413 8.85554 43.3588 6.62375 45.2152 3.57064C45.4116 3.24947 45.831 3.14821 46.1511 3.34357C46.3035 3.43665 46.4068 3.57984 46.4518 3.7394V3.74043ZM46.9653 10.4849C46.5766 8.70928 46.0498 7.00526 45.5804 5.51706C43.8324 8.07922 41.89 10.0349 40.1379 11.7982C35.9925 15.9723 32.9864 18.9999 37.0347 26.7968C47.9983 24.1825 48.3389 16.764 46.9642 10.4849H46.9653Z" fill="#8B7452"/>
<path d="M40.4957 11.4392C37.7269 14.0709 38.3744 16.1319 39.0648 18.3268C39.7163 20.3991 40.3996 22.5757 38.9676 25.3926L37.7515 24.7738C38.9318 22.452 38.3335 20.5463 37.7638 18.7319C36.9435 16.1206 36.1733 13.6699 39.5578 10.4521L40.4957 11.4392Z" fill="#8B7452"/>
<path d="M48.7726 13.0337C48.8083 15.4925 47.0338 16.5522 45.1303 17.6875C43.728 18.5242 42.2439 19.4089 41.6507 20.9513L40.3813 20.4655C41.1454 18.4792 42.8351 17.4707 44.4317 16.5195C45.9864 15.5918 47.4368 14.7265 47.4122 13.0501L48.7726 13.0337Z" fill="#8B7452"/>
<path d="M35.1937 25.0856C35.9455 25.553 36.4497 26.2751 36.6604 27.0749C36.8783 27.9034 36.7801 28.8148 36.3158 29.6105L36.2707 29.6872L36.2667 29.6913C35.7992 30.4431 35.0771 30.9473 34.2773 31.157C33.4488 31.3749 32.5375 31.2767 31.7417 30.8113L31.665 30.7663L31.6609 30.7622C30.9091 30.2948 30.4049 29.5727 30.1942 28.7728C29.9917 28.0026 30.0622 27.1619 30.4458 26.4081V26.3968L30.5389 26.2373C31.0043 25.4405 31.7489 24.9076 32.5773 24.6908C33.3475 24.4882 34.1883 24.5588 34.9421 24.9424H35.0515L35.1937 25.0845V25.0856ZM35.342 27.4217C35.2142 26.9328 34.8981 26.493 34.4266 26.2168H34.4246C33.952 25.9396 33.413 25.8803 32.9241 26.0092C32.4372 26.137 31.9984 26.451 31.7212 26.9205L31.7172 26.9266C31.441 27.3992 31.3827 27.9392 31.5105 28.4271C31.6394 28.916 31.9555 29.3569 32.428 29.633L32.4342 29.6361C32.9057 29.9092 33.4427 29.9675 33.9285 29.8396C34.4174 29.7108 34.8582 29.3947 35.1344 28.9222L35.1405 28.9109C35.4116 28.4404 35.4678 27.9055 35.341 27.4207L35.342 27.4217Z" fill="#8B7452"/>
<path d="M34.9339 33.849C34.7992 33.3372 34.4685 32.8757 33.9743 32.5868C33.4795 32.2979 32.9154 32.2365 32.4036 32.3711C31.8938 32.5051 31.4343 32.8339 31.1454 33.3248L31.1414 33.3306C30.8525 33.8255 30.7911 34.3895 30.9251 34.9007C31.0597 35.4125 31.3898 35.874 31.8846 36.1629C32.3794 36.4518 32.9435 36.5132 33.4553 36.3792C33.9671 36.2446 34.4286 35.9145 34.7169 35.4197C35.0058 34.9242 35.0679 34.3601 34.9339 33.849Z" fill="#E63200"/>
<path d="M39.8831 31.3169C39.755 30.8286 39.4393 30.3887 38.968 30.1129L38.9504 30.1031H38.9491L38.9478 30.1018C38.4804 29.8357 37.9503 29.7808 37.4692 29.907C36.981 30.0351 36.5411 30.3508 36.2659 30.8227C35.99 31.2953 35.9319 31.8333 36.06 32.3209C36.1874 32.8065 36.4999 33.2438 36.9672 33.5197L36.9757 33.5242C37.4477 33.8001 37.9856 33.8583 38.4732 33.7301C38.9615 33.602 39.4014 33.2863 39.6766 32.815C39.9524 32.3425 40.0112 31.8045 39.8831 31.3169Z" fill="#D40E00"/>
<path d="M51.1178 36.9849C50.2191 37.883 48.8392 38.5105 47.3241 38.9425C46.9849 39.0393 46.6378 39.1262 46.2881 39.2046C46.877 39.3262 47.4607 39.455 48.0398 39.5824C52.029 40.4596 55.7874 41.2852 59.5851 39.4171C56.5561 39.2105 53.8076 38.1052 51.1178 36.9849Z" fill="#6A9631"/>
<path d="M40.9624 38.4814C42.5168 38.4389 44.8836 38.2213 46.9511 37.6317C48.027 37.3251 49.0087 36.9231 49.716 36.4022C44.0319 34.0733 38.4596 32.4444 31.0088 41.0143C34.5986 38.9285 37.8798 38.3722 40.9624 38.4814Z" fill="#6A9631"/>
<path d="M51.1061 48.2766C48.8635 47.7733 46.3725 46.1092 43.8657 44.4345C40.6629 42.2945 37.4313 40.1362 35.0704 40.678C33.2408 41.2814 31.3322 42.2631 29.3262 43.7757C31.6322 43.775 34.0167 44.9921 36.6071 46.3144C40.7616 48.4355 45.4907 50.8454 51.1061 48.2766Z" fill="#6A9631"/>
<path d="M38.8223 39.9139C40.6943 40.682 42.6637 41.9971 44.6227 43.3063C48.0536 45.5987 51.4512 47.8681 53.7226 46.7471C55.5666 45.4326 57.5013 43.5541 59.5374 40.946C55.596 42.637 51.7846 41.7997 47.753 40.9134C44.9279 40.2924 41.9885 39.6459 38.8223 39.9139Z" fill="#6A9631"/>
<path d="M21.8057 41.7094C21.1801 39.1471 19.4526 37.7392 17.9061 36.4796C16.9204 35.6763 15.9987 34.9259 15.3921 33.9912C14.3496 38.2843 13.5796 42.3611 21.3867 45.7816C21.6691 44.456 21.8018 43.0866 21.8057 41.7094Z" fill="#6A9631"/>
<path d="M16.0423 31.1261C15.8756 33.0733 17.2261 34.174 18.7634 35.4257C19.7007 36.1892 20.6989 37.0023 21.5303 38.0723C21.376 37.052 21.1603 36.0441 20.8917 35.0629C19.8524 31.2653 18.0366 27.8977 15.96 25.8093C16.4868 27.6003 16.3678 29.3763 16.0423 31.1261Z" fill="#6A9631"/>
<path d="M21.7741 33.2934C21.827 33.0731 21.8865 32.8528 21.9525 32.6345C22.2316 31.7122 22.6349 30.8128 23.2042 30.0363C23.148 29.9768 23.0918 29.918 23.0343 29.8591C21.795 28.5904 20.174 27.3583 18.0928 26.1968C19.5798 28.0982 20.8694 30.5657 21.7741 33.2934Z" fill="#6A9631"/>
<path d="M24.1207 31.1018C23.7448 31.6829 23.4638 32.3444 23.2572 33.0281C22.816 34.4864 22.714 36.0231 22.7493 37.1245C23.4389 40.9594 23.3226 45.0263 21.9722 48.6279C23.0631 47.4121 24.5063 45.4087 25.4763 42.987C26.2489 41.0594 26.7163 38.8703 26.4496 36.6192C26.2339 34.7975 25.5345 32.9242 24.1207 31.1018Z" fill="#6A9631"/>
<path d="M37.7416 25.7137C38.9038 23.407 38.309 21.5121 37.7416 19.7074C37.3671 18.5138 37.0024 17.3543 37.0422 16.1392C34.9225 18.9191 34.1564 21.9435 36.7429 27.2132C37.0841 26.7099 37.4174 26.2104 37.7416 25.7137Z" fill="#6A9631"/>
<path d="M43.6104 17.9755C43.8725 17.8127 44.1359 17.6552 44.3973 17.4996C45.9229 16.5897 47.3485 15.7394 47.3721 14.1203C47.2714 13.2281 47.1152 12.3417 46.9263 11.4776C46.7269 10.5664 46.4909 9.67421 46.2452 8.82056C45.8902 11.7221 45.0732 14.5399 43.8757 17.3617L43.8744 17.3643H43.8757C43.7894 17.5682 43.7006 17.7716 43.6104 17.9755Z" fill="#6A9631"/>
<path d="M40.3793 21.3775C40.5466 20.9579 40.7551 20.582 40.9963 20.2421C41.5996 19.0989 42.1441 17.9642 42.6252 16.8314H42.6265C43.9677 13.6704 44.8109 10.5198 45.0306 7.24902C43.4252 9.45441 41.6911 11.2003 40.1132 12.7893L40.0459 12.8573C37.7784 15.2829 38.3909 17.2334 39.0413 19.3035C39.357 20.3081 39.6799 21.3376 39.7655 22.4534C39.976 22.0939 40.18 21.7351 40.3793 21.3775Z" fill="#6A9631"/>
<path d="M47.4733 17.0039C46.817 17.6373 45.9692 18.1432 45.094 18.6648C44.009 19.3119 42.8749 19.9884 42.1441 20.9774C41.0205 23.0959 39.7054 25.2352 38.2334 27.4334C45.0744 25.428 47.2439 21.3441 47.4733 17.0039Z" fill="#6A9631"/>
<path d="M35.3244 28.3812C35.1963 27.8936 34.8819 27.4543 34.4106 27.1785L34.4086 27.1772C33.9367 26.9014 33.3988 26.8432 32.9105 26.9706C32.4242 27.0981 31.9863 27.4112 31.7104 27.8799L31.7065 27.8864C31.4307 28.3583 31.3725 28.8969 31.4999 29.3845C31.6281 29.8728 31.9438 30.3127 32.4157 30.5886L32.4216 30.5925C32.8922 30.865 33.4275 30.9226 33.9138 30.7951C34.4021 30.667 34.842 30.3513 35.1178 29.8794L35.1244 29.8682C35.3943 29.3989 35.4512 28.8655 35.3244 28.3812Z" fill="#D40E00"/>
<path d="M32.161 35.7844C32.3564 35.4641 32.7748 35.3628 33.0957 35.5583C33.416 35.7537 33.5173 36.172 33.3219 36.493C32.6414 37.6035 31.7864 38.9376 30.7452 40.3867C29.704 41.8358 28.4862 43.3863 27.09 44.9184C24.701 47.5408 20.9504 50.575 16.9599 52.785C13.6623 54.6113 10.1836 55.8833 7.13506 55.9172C6.75987 55.9199 6.45397 55.6185 6.4507 55.2433C6.44809 54.8681 6.74941 54.5622 7.1246 54.559C9.92349 54.5276 13.1806 53.3256 16.2998 51.5973C20.1569 49.4606 23.7787 46.5316 26.0834 44.002C27.4522 42.4999 28.6359 40.9939 29.6425 39.5925C30.6491 38.1918 31.4884 36.8825 32.161 35.7844Z" fill="#291501"/>
<path d="M30.9308 40.123C30.6857 40.4066 30.2562 40.4374 29.9725 40.1922C29.6889 39.9465 29.6581 39.5177 29.9033 39.234C38.5084 29.2699 44.7677 31.8799 51.3172 34.6114C54.6743 36.0115 58.1137 37.4456 61.9486 37.0378C62.3218 36.9979 62.6572 37.2685 62.697 37.6424C62.7147 37.8097 62.6702 37.9692 62.5826 38.0973C51.4302 54.4299 42.9584 50.1047 35.9906 46.5476C32.7231 44.8795 29.8144 43.3944 27.29 44.6246C26.9521 44.7893 26.5442 44.6488 26.3795 44.3102C26.2148 43.9723 26.3553 43.5644 26.6939 43.3997C29.8287 41.8721 33.0218 43.5023 36.6089 45.3331C42.9296 48.5602 50.5812 52.4631 60.6596 38.4692C57.0764 38.4869 53.903 37.1639 50.7962 35.8677C44.7095 33.3297 38.8928 30.904 30.9308 40.123Z" fill="#291501"/>
<path d="M34.6605 30.4278C35.4782 30.9056 36.0253 31.6704 36.2489 32.5207C36.4724 33.3718 36.3717 34.3065 35.8946 35.1242C35.4168 35.9419 34.652 36.489 33.8023 36.7126C33.0101 36.9204 32.1447 36.8479 31.3694 36.4511H31.3583L31.1988 36.3576C30.3811 35.8798 29.834 35.115 29.6105 34.2647C29.4026 33.4724 29.4752 32.607 29.8719 31.8318V31.8213L29.9654 31.6619C30.4426 30.8442 31.2073 30.2971 32.0577 30.0735C32.9081 29.85 33.8428 29.9506 34.6605 30.4278ZM34.9331 32.8665C34.7984 32.3547 34.4677 31.8932 33.9735 31.6043C33.4787 31.3154 32.9146 31.254 32.4028 31.3886C31.893 31.5226 31.4335 31.8514 31.1446 32.3423L31.1407 32.3482C30.8518 32.843 30.7903 33.4071 30.9243 33.9182C31.059 34.43 31.3897 34.8915 31.8839 35.1804C32.3787 35.4693 32.9427 35.5308 33.4545 35.3968C33.9663 35.2621 34.4278 34.932 34.7161 34.4372C35.005 33.9418 35.0671 33.3777 34.9331 32.8665Z" fill="#291501"/>
<path d="M39.6547 27.9537C40.4495 28.4178 40.9816 29.1616 41.1986 29.9878C41.4006 30.7559 41.3306 31.5958 40.9469 32.3481V32.3599L40.8535 32.5194C40.3894 33.3142 39.6456 33.8463 38.8193 34.0633C37.9925 34.2803 37.0833 34.1829 36.2891 33.7188C35.4942 33.2541 34.9616 32.5109 34.7446 31.684C34.5275 30.8572 34.6249 29.948 35.089 29.1531L35.0975 29.1381L35.0995 29.1342L35.1027 29.1289C35.5675 28.3472 36.3048 27.8236 37.1232 27.6086C37.95 27.3916 38.8599 27.4897 39.6547 27.9537ZM39.8835 30.3343C39.7554 29.846 39.4397 29.4061 38.9677 29.1302L38.9501 29.1204H38.9488L38.9475 29.1191C38.4801 28.8531 37.95 28.7982 37.4696 28.9244C36.9813 29.0525 36.5414 29.3682 36.2662 29.8401C35.9904 30.3127 35.9322 30.8506 36.0603 31.3382C36.1878 31.8239 36.5002 32.2612 36.9676 32.537L36.9761 32.5423C37.448 32.8181 37.986 32.8763 38.4742 32.7482C38.9625 32.62 39.4024 32.3043 39.6776 31.8331C39.9534 31.3605 40.0116 30.8219 39.8835 30.3343Z" fill="#291501"/>
<path d="M62.4296 38.254C57.4284 42.0582 52.7609 41.0319 47.7521 39.9305C41.9804 38.6617 35.7277 37.2871 28.0513 43.8158L27.1729 42.7771C35.363 35.8125 41.9549 37.2616 48.0397 38.599C52.7361 39.6318 57.1122 40.5934 61.6099 37.1729L62.4296 38.254Z" fill="#291501"/>
<path d="M39.9572 37.5008C41.3004 37.5427 44.3614 37.3877 46.9518 36.6498C48.5153 36.204 49.8807 35.5569 50.4932 34.6353L51.6273 35.3856C50.8063 36.6217 49.165 37.4348 47.3244 37.9597C44.5869 38.7401 41.3442 38.9035 39.9199 38.8591L39.9572 37.5008Z" fill="#291501"/>
<path d="M34.1816 38.5515C37.225 37.3822 40.9409 39.8647 44.6216 42.3237C48.4042 44.8513 52.1469 47.3515 54.3844 45.3082L55.3001 46.3148C52.2783 49.0732 48.0944 46.2782 43.8653 43.4525C40.4755 41.1877 37.0531 38.9012 34.666 39.8183L34.1816 38.5515Z" fill="#291501"/>
<path d="M19.4531 49.7183C19.6387 49.4183 19.8158 49.1052 19.9838 48.7803C22.2605 44.3807 22.2108 38.9005 20.8917 34.0812C19.576 29.2737 17.0163 25.1551 14.2579 23.4484C14.1174 23.3615 13.9697 23.2778 13.8154 23.1981L14.4383 21.9895C14.6103 22.0784 14.788 22.1797 14.9711 22.2934C18.0092 24.1733 20.7989 28.6011 22.201 33.725C23.6004 38.8365 23.639 44.6741 21.1918 49.4039C21.0146 49.7464 20.8198 50.0896 20.6081 50.4321L19.4531 49.7183Z" fill="#291501"/>
<path d="M22.0489 45.0805C22.396 45.2216 22.5627 45.6171 22.4215 45.9642C22.2803 46.3113 21.8842 46.478 21.5377 46.3368C11.7181 42.3254 12.9058 37.4642 14.1562 32.3456C14.9144 29.2414 15.6988 26.0314 13.5705 22.9828C13.3561 22.6756 13.4306 22.252 13.7385 22.0376C13.9333 21.9017 14.1745 21.8821 14.3797 21.9638C18.8055 23.7364 21.9064 25.7765 24.0085 27.9289C26.3976 30.3742 27.5048 32.9632 27.8022 35.4778C28.0983 37.9799 27.5865 40.3939 26.7381 42.511C25.5053 45.587 23.549 48.046 22.3548 49.2128C22.0855 49.4742 21.6554 49.4684 21.3939 49.1997C21.1325 48.9304 21.1384 48.5003 21.407 48.2389C22.5123 47.159 24.3262 44.8759 25.4766 42.0057C26.2492 40.0781 26.7165 37.8891 26.4499 35.6379C26.1851 33.3986 25.1883 31.0821 23.0339 28.8773C21.3488 27.153 18.9591 25.4954 15.6654 23.992C16.8753 26.9354 16.1661 29.8408 15.4759 32.6658C14.3673 37.2041 13.315 41.5129 22.0489 45.0805Z" fill="#291501"/>
<path d="M16.0457 30.0991C15.8542 32.0744 17.2137 33.1824 18.7629 34.4439C20.4937 35.8538 22.4298 37.431 23.1468 40.4842L21.8206 40.7934C21.2088 38.1893 19.4649 36.7683 17.9053 35.4982C16.0555 33.9916 14.4318 32.6686 14.6933 29.9717L16.0457 30.0991Z" fill="#291501"/>
<path d="M24.7939 29.2792C24.0599 30.0113 23.5723 31.0035 23.2566 32.0461C22.8095 33.5227 22.7108 35.0803 22.75 36.1836L21.3924 36.2314C21.3492 35.0084 21.4584 33.2834 21.9526 31.6513C22.3258 30.4185 22.9199 29.2282 23.8363 28.3145L24.7939 29.2792Z" fill="#291501"/>
<path d="M45.0808 3.9626C45.0736 3.58741 45.3716 3.27758 45.7462 3.27039C46.1214 3.2632 46.4312 3.56126 46.4384 3.9358C46.5384 8.24984 45.6024 12.3103 43.8761 16.3785L43.8748 16.3811H43.8761C42.1642 20.4161 39.6778 24.4497 36.6586 28.7454C36.4423 29.0527 36.018 29.1265 35.7108 28.9108C35.4036 28.6945 35.3298 28.2702 35.5455 27.963C38.5156 23.7372 40.9563 19.7807 42.6244 15.8491H42.6257C44.2787 11.9527 45.1762 8.07205 45.0808 3.9626Z" fill="#291501"/>
<path d="M46.4126 3.76319C46.4505 3.88607 46.5923 4.33447 46.74 4.80117C47.2407 6.38495 47.8251 8.23345 48.2565 10.2068C49.7854 17.1955 49.3762 25.47 36.8021 28.2212C36.4857 28.2898 36.1733 28.1257 36.0413 27.8447C31.1893 18.8623 34.5209 15.5065 39.148 10.848C41.1129 8.87009 43.3254 6.64248 45.1785 3.5952C45.3739 3.27492 45.7923 3.1736 46.1132 3.36904C46.2655 3.46186 46.3675 3.60436 46.4126 3.76319ZM46.9257 10.4944C46.5381 8.72237 46.0125 7.02159 45.5439 5.53652C43.7993 8.09291 41.8606 10.046 40.1121 11.8056C35.9746 15.9713 32.975 18.993 37.0152 26.7747C47.9578 24.1653 48.297 16.7622 46.9257 10.4944Z" fill="#291501"/>
<path d="M40.4692 11.4469C37.7062 14.0739 38.352 16.1302 39.0403 18.3206C39.69 20.3894 40.3724 22.5608 38.9429 25.3727L37.7291 24.755C38.907 22.4372 38.3102 20.5358 37.7409 18.7252C36.9219 16.1191 36.1538 13.6732 39.5319 10.4612L40.4692 11.4469Z" fill="#291501"/>
<path d="M48.7296 13.0383C48.7655 15.4928 46.9935 16.5497 45.094 17.6825C43.6946 18.5172 42.2134 19.4002 41.6219 20.9402L40.3545 20.4559C41.1173 18.4734 42.8037 17.4674 44.3966 16.517C45.9483 15.5915 47.3962 14.728 47.3713 13.0547L48.7296 13.0383Z" fill="#291501"/>
<path d="M35.1765 25.0669C35.9269 25.5336 36.4302 26.254 36.64 27.0527C36.857 27.8802 36.7596 28.7888 36.2956 29.5836L36.2511 29.6607L36.2472 29.6647C35.7805 30.4144 35.0595 30.9177 34.2614 31.1275C33.4346 31.3445 32.5254 31.2471 31.7305 30.783L31.6534 30.7379L31.6495 30.734C30.8991 30.2673 30.3958 29.5464 30.186 28.7483C29.984 27.9796 30.0546 27.1403 30.4376 26.388V26.3768L30.5311 26.2174C30.9952 25.4225 31.739 24.8905 32.5652 24.6735C33.3339 24.4715 34.1732 24.5414 34.9255 24.9251H35.0353L35.1765 25.0669ZM35.3249 27.3991C35.1968 26.9115 34.8824 26.4723 34.4111 26.1964L34.4092 26.1951C33.9372 25.9193 33.3993 25.8611 32.911 25.9892C32.4247 26.1167 31.9868 26.4298 31.7109 26.8984L31.707 26.905C31.4312 27.3769 31.373 27.9155 31.5011 28.4031C31.6292 28.8914 31.9449 29.3313 32.4169 29.6071L32.4227 29.6104C32.8934 29.883 33.4287 29.9405 33.915 29.813C34.4033 29.6849 34.8432 29.3692 35.119 28.8973L35.1255 28.8862C35.3955 28.4169 35.4517 27.8828 35.3249 27.3991Z" fill="#291501"/>
<path fill-rule="evenodd" clip-rule="evenodd" d="M34.3607 26.9066C34.3509 26.7595 34.2594 26.6177 34.0882 26.5163C33.9163 26.415 33.6979 26.3732 33.4836 26.3882C33.2685 26.4033 33.0574 26.4739 32.9012 26.598C32.7443 26.7222 32.6717 26.8752 32.6815 27.0223C32.6913 27.17 32.7829 27.3112 32.9541 27.4125C33.126 27.5138 33.3443 27.555 33.5587 27.5406C33.7731 27.5256 33.9849 27.4543 34.1411 27.3308C34.298 27.2066 34.3705 27.0536 34.3607 26.9066Z" fill="white"/>
<path fill-rule="evenodd" clip-rule="evenodd" d="M33.6508 32.359C33.641 32.2119 33.5495 32.0701 33.3782 31.9687C33.2063 31.8674 32.988 31.8256 32.7736 31.8406C32.5585 31.8557 32.3474 31.9262 32.1912 32.0504C32.0343 32.1746 31.9618 32.3276 31.9716 32.4747C31.9814 32.6224 32.0729 32.7636 32.2441 32.8649C32.4161 32.9662 32.6344 33.008 32.8488 32.993C33.0632 32.978 33.2749 32.9067 33.4312 32.7832C33.588 32.659 33.6606 32.506 33.6508 32.359Z" fill="white"/>
<path fill-rule="evenodd" clip-rule="evenodd" d="M38.4672 30.264C38.4574 30.1169 38.3659 29.9751 38.1946 29.8738C38.0227 29.7724 37.8044 29.7306 37.59 29.7457C37.375 29.7607 37.1638 29.8313 37.0076 29.9555C36.8507 30.0797 36.7782 30.2326 36.788 30.3797C36.7978 30.5274 36.8893 30.6686 37.0606 30.7699C37.2325 30.8712 37.4508 30.9131 37.6652 30.898C37.8796 30.883 38.0913 30.8117 38.2476 30.6882C38.4044 30.564 38.477 30.4111 38.4672 30.264Z" fill="white"/>
<path d="M153.88 31.5005V18.8645H156.493L160.841 24.8705C161.543 25.826 162.343 27.191 162.343 27.191V18.8645H165.073V31.5005H162.44L158.228 25.7285C157.39 24.5975 156.61 23.252 156.61 23.252V31.5005H153.88Z" fill="#8B7452"/>
<path d="M141.328 31.7149C137.428 31.7149 134.64 28.8094 134.64 25.1824C134.64 21.5749 137.409 18.6694 141.309 18.6694C143.083 18.6694 144.643 19.2934 145.794 20.2879L144.097 22.1404C143.22 21.3604 142.323 21.1459 141.367 21.1459C139.164 21.1459 137.487 22.9399 137.487 25.1824C137.487 27.4444 139.125 29.2384 141.367 29.2384C142.576 29.2384 143.59 28.6924 144.273 27.9709V26.1184H142.128V24.1294H146.769V29.0434C145.657 30.7009 143.61 31.7149 141.328 31.7149Z" fill="#8B7452"/>
<path d="M125.172 31.5003V18.8643H127.902V31.5003H125.172Z" fill="#8B7452"/>
<path d="M113.193 31.7149C110.171 31.7149 108.747 30.5644 108.045 29.9989L109.04 27.8929C110.054 28.6339 111.263 29.2774 113.193 29.2774C114.246 29.2774 115.533 28.7899 115.533 27.7954C115.533 26.8204 114.402 26.5669 113.291 26.2939C110.931 25.7479 108.494 24.9484 108.494 22.3159C108.494 19.8784 110.775 18.6694 113.193 18.6694C115.104 18.6694 116.547 19.1764 117.815 20.0149L116.82 22.1209C115.806 21.4579 114.48 21.1069 113.193 21.1069C112.53 21.1069 111.282 21.3604 111.282 22.3159C111.282 23.1349 112.199 23.4274 113.447 23.7199C115.689 24.2464 118.38 25.0849 118.38 27.7954C118.38 30.5254 115.728 31.7149 113.193 31.7149Z" fill="#8B7452"/>
<path d="M91.9893 31.5003V18.8643H101.876V21.2043H94.7193V23.7783H101.505V26.0988H94.7193V29.1603H102.149V31.5003H91.9893Z" fill="#8B7452"/>
<path d="M73.4268 31.5003V18.8643H78.4968C82.6503 18.8643 85.2633 21.7308 85.2633 25.1823C85.2633 28.6338 82.6503 31.5003 78.4968 31.5003H73.4268ZM76.1568 29.1603H78.3798C80.7978 29.1603 82.3968 27.4833 82.3968 25.1823C82.3968 22.9008 80.7978 21.2043 78.3798 21.2043H76.1568V29.1603Z" fill="#8B7452"/>
<path d="M141.604 48.0004V40.2244H147.688V41.6644H143.284V43.2484H147.46V44.6764H143.284V46.5604H147.856V48.0004H141.604Z" fill="#8B7452"/>
<path d="M131.423 48.0004V40.2244H137.507V41.6644H133.103V43.2484H137.279V44.6764H133.103V46.5604H137.675V48.0004H131.423Z" fill="#8B7452"/>
<path d="M121.828 48.0004V40.2244H127.648V41.6644H123.508V43.2484H127.036V44.6764H123.508V48.0004H121.828Z" fill="#8B7452"/>
<path d="M112.233 48.0004V40.2244H118.053V41.6644H113.913V43.2484H117.441V44.6764H113.913V48.0004H112.233Z" fill="#8B7452"/>
<path d="M103.982 48.1327C101.582 48.1327 99.8657 46.3447 99.8657 44.1127C99.8657 41.8927 101.582 40.1047 103.982 40.1047C106.382 40.1047 108.098 41.8927 108.098 44.1127C108.098 46.3447 106.382 48.1327 103.982 48.1327ZM103.994 46.6087C105.35 46.6087 106.346 45.5047 106.346 44.1127C106.346 42.7327 105.35 41.6287 103.994 41.6287C102.638 41.6287 101.618 42.7327 101.618 44.1127C101.618 45.5047 102.626 46.6087 103.994 46.6087Z" fill="#8B7452"/>
<path d="M93.4609 48.1325C91.0609 48.1325 89.3569 46.3445 89.3569 44.1005C89.3569 41.8925 91.0609 40.1045 93.4609 40.1045C94.5289 40.1045 95.4889 40.4645 96.1849 41.0885L95.1529 42.2165C94.6249 41.7605 94.0849 41.6285 93.5569 41.6285C92.1409 41.6285 91.1089 42.7325 91.1089 44.1005C91.1089 45.4925 92.1169 46.6085 93.4969 46.6085C94.2169 46.6085 94.8769 46.3325 95.3569 45.8045L96.4009 46.9805C95.6569 47.7005 94.6489 48.1325 93.4609 48.1325Z" fill="#8B7452"/>
</svg>
